<?xml version="1.0" encoding="UTF-8"?>
<svg id="Layer_1" xmlns="http://www.w3.org/2000/svg" version="1.1" viewBox="0 0 3120.7 785.8">
  <!-- Generator: Adobe Illustrator 29.5.1, SVG Export Plug-In . SVG Version: 2.1.0 Build 141)  -->
  <defs>
    <style>
      .st0 {
        fill: #263f56;
      }

      .st1 {
        fill: #ef7026;
      }
    </style>
  </defs>
  <g>
    <path class="st0" d="M761.4,337.6c-.9,10.7-3.4,21.2-7.4,31.3-5.6,14.2-14,26.9-24.9,37.7l-4,4h13.9c2.1,0,4.1.9,5.5,2.4,1.4,1.5,2.1,3.6,2,5.7-3,45.5-17,90-40.6,128.7-1.4,2.3-3.8,3.6-6.4,3.6s-2.7-.4-3.9-1.1c-16.2-9.8-34.9-18.5-55.5-26-3.6-1.3-5.7-5.2-4.8-8.9,7.3-30.8,11.6-63.5,12.7-97.1.1-4.1,3.4-7.4,7.5-7.4h47.8l-5.5-21.1h-42.3c-4.1,0-7.4-3.2-7.5-7.4-.9-27.5-4-54.5-9.1-80.5l-39.5-28.8,36.7-8.6c14.3-3.3,29.1-5.2,43.8-5.5,5.6-2.9,10.9-5.8,15.7-8.7,1.2-.7,2.5-1.1,3.9-1.1,2.6,0,5,1.4,6.4,3.6,1.5,2.4,2.9,4.9,4.6,7.8,3.4.4,6.5.9,9.6,1.4l9.8-9.3c-52.6-95.1-151.4-154.1-258.3-154.1S196,211.9,177.6,362.8l21.8-6.3c5.7-36.6,18.7-72.4,37.8-103.7,1.4-2.3,3.8-3.6,6.4-3.6s2.7.4,3.9,1.1c16.2,9.8,34.8,18.5,55.5,25.9,3.6,1.3,5.7,5.2,4.8,8.9-.1.5-.2,1-.3,1.5,5.9,1,12.9,2.3,21,3.9.6-1.2,1.6-2.3,2.8-3,1.7-1,3.8-1.4,5.8-.8,36.7,9.7,76,15.3,116.9,16.5,4.1.1,7.3,3.5,7.3,7.6v36.8c5.7.5,12.6,1.5,20.6,3.1v-39.9c0-4.1,3.2-7.5,7.3-7.6,40.9-1.3,80.3-6.8,116.9-16.5,2-.5,4.1-.2,5.8.8,1.7,1,3,2.8,3.4,4.7,6.8,28.5,10.8,58.6,12,89.4,0,2-.7,4.1-2.1,5.6-1.4,1.5-3.4,2.4-5.5,2.4h-53.1l-3.2,21.1h56.3c2,0,4,.9,5.5,2.4,1.4,1.5,2.2,3.5,2.1,5.6-1.2,30.8-5.2,60.9-12,89.4-.5,2-1.7,3.7-3.4,4.7-1.7,1-3.9,1.4-5.8.8-21.4-5.7-44.1-10-67.3-12.8l-7.4,20.3c23.9,2.6,47,6.8,68.6,12.5,2,.5,3.8,1.9,4.8,3.8,1,1.8,1.2,4,.5,6-24.8,73.6-67.5,124-114.1,134.8-2.2.5-4.6,0-6.4-1.5-1.8-1.5-2.8-3.6-2.8-5.9v-104.8l-20.6-2.4v107.2c0,2.3-1,4.5-2.8,5.9-1.8,1.4-4.2,2-6.4,1.5-45.2-10.5-87-58.5-112-128.7l-24.2-2.8c.7.8,1.3,1.7,1.6,2.8,12.3,37.2,28.7,68.9,48.8,94,2.2,2.8,2.2,6.6.1,9.4h0c-1.4,1.9-3.7,3-6,3s-2.2-.2-3.2-.7c-37.9-17.7-72-44.4-98.5-77.1-1.4-1.7-2-4-1.6-6.2.4-2.2,1.7-4.1,3.6-5.2,13.3-7.9,28.4-15,44.9-21.1l-41.1-4.8c-6,3.1-11.7,6.2-17,9.4-1.2.7-2.5,1.1-3.9,1.1-2.6,0-5-1.4-6.4-3.6-2-3.3-4.1-6.8-6.2-10.8l-24.9-2.9c49.9,102.1,153.4,167.8,265.5,167.8,163.4,0,296.2-135.2,296.2-301.4s-2.2-42-6.4-62.5ZM317.4,250.9h0c-.6,1.9-2,3.6-3.9,4.4-1,.5-2.2.8-3.3.8s-1.8-.2-2.6-.5c-17.3-6.4-33.1-13.7-47-21.9-1.9-1.1-3.2-3-3.6-5.2,0-.5-.4-3,1.4-5.9,32.5-51.7,95.1-76.9,97.8-77.9,5.6-2.2,11.4-4.3,17.1-6.2l9.7-3.1-31.8,42.7c-13.4,21-24.7,45.5-33.7,72.8ZM461.3,274.5c0,2-.8,4-2.3,5.5-1.4,1.4-3.3,2.2-5.3,2.2s-.2,0-.3,0c-38.7-1.2-75.8-6.4-110.2-15.5-2-.5-3.8-1.9-4.8-3.8-1-1.8-1.2-4-.5-6,24.8-73.6,67.5-124,114.1-134.8,2.2-.5,4.6,0,6.4,1.5,1.8,1.5,2.8,3.6,2.8,5.9v145ZM561.8,134.1c6.2,2.2,12.5,4.8,18.5,7.6,6.4,3,12.8,6.4,18.9,10.1h.1c32.5,17.5,62,41.8,85.2,70.5,1.4,1.7,2,4,1.6,6.2-.4,2.2-1.7,4.1-3.6,5.2-14,8.3-29.8,15.7-47,22-.8.3-1.7.5-2.6.5s-2.3-.3-3.3-.8c-1.8-.9-3.2-2.5-3.9-4.4-12.3-37.2-28.7-68.9-48.8-94.1h0c-.3-.4-.6-.9-.9-1.4-.2-.3-.5-.6-.8-.9-4.9-5.5-10.5-10.5-16.5-14.9l-18.3-13.2,21.3,7.6ZM489.4,282.1c-2,0-3.8-.8-5.3-2.2-1.4-1.4-2.3-3.4-2.3-5.5v-145c0-2.3,1-4.5,2.8-5.9,1.8-1.4,4.2-2,6.4-1.5,46.7,10.8,89.3,61.2,114.1,134.8.7,2,.5,4.2-.5,6.1-1,1.9-2.7,3.2-4.8,3.8-34.4,9-71.5,14.2-110.3,15.4,0,0-.1,0-.2,0ZM684.5,577.9c-26.5,32.8-60.6,59.4-98.5,77.1-1,.5-2.1.7-3.2.7-2.3,0-4.6-1.1-6-3-2.1-2.8-2.1-6.7.1-9.4,20.1-25.2,36.5-56.8,48.8-94.1.6-1.9,2-3.6,3.9-4.4,1.8-.9,4-1,5.9-.3,17.1,6.3,32.9,13.7,47,22,1.9,1.1,3.2,3,3.6,5.2.4,2.2-.2,4.4-1.6,6.2Z"/>
    <path class="st1" d="M395.5,405.7h-90.5c-19.5,0-35.3-14.3-35.3-32v-32.3c0-17.6,15.9-32,35.3-32h90.5c19.5,0,35.3,14.3,35.3,32v32.3c0,17.6-15.9,32-35.3,32ZM305.1,338.2c-1.9,0-3.5,1.4-3.5,3.2v32.3c0,1.8,1.6,3.2,3.5,3.2h90.5c1.9,0,3.5-1.4,3.5-3.2v-32.3c0-1.8-1.6-3.2-3.5-3.2h-90.5Z"/>
    <path class="st0" d="M938.1,192.3l-22.4,175.5c-2.1,16.6-12.5,30.9-27.6,38.1l-3,1.4-35.4-166.3-106.1,74.1c1.2,8.8,2.4,27-5.7,47.5-6.2,15.5-15.1,26-21,31.8-6.2-23.6-12.3-47.2-18.5-70.8-19.5-14.2-38.9-28.3-58.4-42.5,13.4-3.1,31.2-5.8,52.1-4.9,12.7.5,23.9,2.3,33.4,4.4,26.9-25.6,53.8-51.3,80.7-76.9l-147.6-89.3,15.6-6.2c12.6-5,26.4-6.1,39.6-3.2l178.9,39.9,144.3-103.2c4.7-1.4,11.6-2.9,20.1-2.5,6.6.3,22,1,28,9.6,6.6,9.4,1.8,28.3-14.2,43.6-44.3,33.3-88.5,66.6-132.8,99.8Z"/>
    <rect class="st0" x="151.4" y="377.4" width="390.2" height="294" rx="57.7" ry="57.7"/>
    <path class="st1" d="M209,407.3h274.9c15.3,0,27.7,12.4,27.7,27.7v178.6c0,15.3-12.4,27.7-27.7,27.7H209c-15.3,0-27.7-12.4-27.7-27.7v-178.6c0-15.3,12.4-27.7,27.7-27.7Z"/>
    <rect class="st0" x="220.2" y="393.1" width="25.8" height="257.5"/>
    <rect class="st0" x="449.1" y="389.3" width="25.8" height="257.5"/>
    <circle class="st0" cx="316.8" cy="536.5" r="29.7"/>
    <circle class="st0" cx="411.8" cy="492.2" r="29.7"/>
    <rect class="st0" x="314.9" y="501.2" width="101.1" height="15" transform="translate(-172 186.9) rotate(-23.4)"/>
    <path class="st0" d="M47,555.6c-19.4,28.3-27.6,58.1-23.7,86,2,13.9,8.2,35,26.8,56.6,46.6,54.2,130.1,50.8,180,48.8,84.1-3.5,169.1-31.8,246.6-82.1l-81.9,12.2c-53.2,26.8-111.2,40-167.8,37.9-46.3-1.7-142.5-5.2-166.1-65-16.7-42.5,7.7-101.8,60.7-147.8l5.3-15.9c-33.8,18.4-61.3,42.2-79.8,69.3Z"/>
  </g>
  <g>
    <g>
      <path class="st1" d="M970,245.4h75.7l-21.9,155.2,259.1-88.7-122.4,102.2-145.5,49.6-10.5,76.1h-75.7l41.2-294.4ZM1158,431.3l86.2-74.4-25.7,182.9h-75.7l15.1-108.5ZM1171,337.5l13-92.1h75.7l-9.3,67.3-79.5,24.8Z"/>
      <path class="st1" d="M1286.3,321.1c1.7-11.5,5-21.9,9.9-31.1,4.9-9.3,11.1-17.2,18.7-23.8,7.6-6.6,16.3-11.7,26.1-15.3,9.8-3.6,20.3-5.5,31.5-5.5h150.1c11.5,0,21.6,1.8,30.3,5.5,8.7,3.6,15.9,8.8,21.7,15.3,5.7,6.6,9.8,14.5,12.2,23.8,2.4,9.3,2.7,19.6,1.1,31.1l-20.2,143c-1.7,11.2-5,21.5-9.9,30.9-4.9,9.4-11.1,17.4-18.7,24-7.6,6.6-16.2,11.7-25.9,15.3-9.7,3.6-20.3,5.5-31.8,5.5h-150.1c-11.2,0-21.2-1.8-30.1-5.5-8.8-3.6-16.1-8.8-21.9-15.3-5.8-6.6-9.8-14.6-12.2-24-2.4-9.4-2.7-19.7-1.1-30.9l20.2-143ZM1346,435.5c-2,13.7,0,24.7,6.1,33,6,8.3,15.2,12.4,27.5,12.4h69c12.3,0,22.8-4.1,31.5-12.4,8.7-8.3,14-19.3,16-33l11.8-85.8c2-13.7-.1-24.7-6.3-33-6.2-8.3-15.4-12.4-27.8-12.4h-69c-12.3,0-22.8,4.1-31.3,12.4-8.6,8.3-13.8,19.3-15.8,33l-11.8,85.8Z"/>
      <path class="st1" d="M1632.4,245.4h176.2c31.4,0,54,8.9,67.9,26.7,13.9,17.8,18.6,42.7,14.1,74.6-2.5,16.8-7.4,31.9-14.7,45.2-7.3,13.3-16.5,24.6-27.5,33.9-11.1,9.3-23.8,16.3-38.1,21.2-14.3,4.9-29.7,7.4-46.3,7.4h-85.4l-11.8,85.4h-75.7l41.2-294.4ZM1687,395.5h84.1c6.7,0,12.6-1.3,17.7-4,5-2.7,9.4-6.2,13-10.5,3.6-4.3,6.5-9.3,8.6-14.9,2.1-5.6,3.6-11.5,4.4-17.7.6-4.8.8-9.7.6-14.7-.1-5-1.1-9.8-2.9-14.3-1.8-4.5-4.6-8.1-8.4-10.9-3.8-2.8-8.9-4.2-15.3-4.2h-89.2l-12.6,91.3Z"/>
      <path class="st1" d="M2048.3,245.4h75.7l117.3,195.6,27.3-195.6h75.7l-41.2,294.4h-75.7l-117.3-195.6-27.3,195.6h-75.7l41.2-294.4Z"/>
      <path class="st1" d="M2735.8,464.1c-1.7,11.2-5,21.5-9.9,30.9-4.9,9.4-11.1,17.4-18.7,24-7.6,6.6-16.2,11.7-25.9,15.3-9.7,3.6-20.3,5.5-31.8,5.5h-127.4c-11.2,0-21.2-1.8-30.1-5.5-8.8-3.6-16.1-8.8-21.9-15.3-5.8-6.6-9.8-14.6-12.2-24-2.4-9.4-2.7-19.7-1.1-30.9l20.2-143c1.7-11.5,5-21.9,9.9-31.1,4.9-9.3,11.1-17.2,18.7-23.8,7.6-6.6,16.3-11.7,26.1-15.3,9.8-3.6,20.3-5.5,31.5-5.5h166.1l-41.6,58.9h-92.1c-12.3,0-22.8,4.1-31.3,12.4-8.6,8.3-13.8,19.3-15.8,33l-11.8,85.8c-2,13.7,0,24.7,6.1,33,6,8.3,15.2,12.4,27.5,12.4h87.1l9.7-66h-74.9l-25.7-58.9h108.5c11.5,0,21.6,1.8,30.3,5.5,8.7,3.6,15.9,8.8,21.7,15.3,5.7,6.6,9.8,14.5,12.2,23.8,2.4,9.3,2.7,19.6,1.1,31.1l-4.6,32.4Z"/>
      <path class="st1" d="M2781.7,321.1c1.7-11.5,5-21.9,9.9-31.1,4.9-9.3,11.1-17.2,18.7-23.8,7.6-6.6,16.3-11.7,26.1-15.3,9.8-3.6,20.3-5.5,31.5-5.5h150.1c11.5,0,21.6,1.8,30.3,5.5,8.7,3.6,15.9,8.8,21.7,15.3,5.7,6.6,9.8,14.5,12.2,23.8,2.4,9.3,2.7,19.6,1.1,31.1l-20.2,143c-1.7,11.2-5,21.5-9.9,30.9-4.9,9.4-11.1,17.4-18.7,24-7.6,6.6-16.2,11.7-25.9,15.3-9.7,3.6-20.3,5.5-31.8,5.5h-150.1c-11.2,0-21.2-1.8-30.1-5.5-8.8-3.6-16.1-8.8-21.9-15.3-5.8-6.6-9.8-14.6-12.2-24-2.4-9.4-2.7-19.7-1.1-30.9l20.2-143ZM2841.4,435.5c-2,13.7,0,24.7,6.1,33,6,8.3,15.2,12.4,27.5,12.4h69c12.3,0,22.8-4.1,31.5-12.4,8.7-8.3,14-19.3,16-33l11.8-85.8c2-13.7-.1-24.7-6.3-33-6.2-8.3-15.4-12.4-27.8-12.4h-69c-12.3,0-22.8,4.1-31.3,12.4-8.6,8.3-13.8,19.3-15.8,33l-11.8,85.8Z"/>
    </g>
    <g>
      <path class="st0" d="M1125.6,611.4v-8h57.5v8h-24.4v63.4h-8.8v-63.4h-24.4Z"/>
      <path class="st0" d="M1237.9,649.2h-17.3v25.7h-8.9v-71.4h32.4c16.1,0,24.2,11.2,24.2,22.8.1,10.8-5.8,20.9-20.5,22.1l23.6,26.4h-11.2l-22.2-25.7ZM1259.4,626.5c.1-7.1-5-15.1-15.3-15.1h-23.6v29.8h23.1c10.7,0,15.7-6.6,15.7-14.7Z"/>
      <path class="st0" d="M1335.9,603.5l32,71.4h-9.6l-7-15.7h-40.8l-6.9,15.7h-9.7l32-71.4h10ZM1330.9,612.5l-16.9,38.5h33.9l-16.9-38.5Z"/>
      <path class="st0" d="M1394.1,603.5l24.4,61,24.6-61h9.8l-29.5,71.6h-9.6l-29.6-71.6h9.9Z"/>
      <path class="st0" d="M1481.8,603.5h50.2v8.2h-41.4v22.3h39.7v8.3h-39.7v24.2h43v8.5h-51.8v-71.4Z"/>
      <path class="st0" d="M1574.4,666.6h38.8v8.3h-47.7v-71.4h8.9v63.1Z"/>
      <path class="st0" d="M1682.5,603.5h50.2v8.2h-41.4v22.3h39.7v8.3h-39.7v24.2h43v8.5h-51.8v-71.4Z"/>
      <path class="st0" d="M1800.4,603.5l32,71.4h-9.6l-7-15.7h-40.8l-6.9,15.7h-9.7l32-71.4h10ZM1795.4,612.5l-16.9,38.5h33.9l-16.9-38.5Z"/>
      <path class="st0" d="M1884.2,609.9c-9.1,0-18.8,3.6-18.8,12.2s8.9,10,19.4,11.7c14.3,2.2,28.3,5.1,28.3,21.2-.1,16-15.4,21.2-29.1,21.2s-24.7-4.6-30.2-16.5l7.3-4.3c4.6,8.5,14.2,12.5,22.9,12.5s20.2-2.8,20.2-13.3c.1-8.9-9.9-11.4-20.6-13.1-13.8-2.1-27.1-5.3-27.1-19.8-.2-14.9,15-20,27.3-20s20.7,2.1,27,12.9l-6.7,4.2c-3.9-6.2-12.1-9.1-20.1-9.2Z"/>
      <path class="st0" d="M1935.2,603.8v-.3h10.8l21.4,33.9,21.9-33.9h10.8v.3l-28.1,42.1v29h-9.2v-29l-27.6-42.1Z"/>
      <path class="st0" d="M2023.1,675c-2-.5-3.6-2-3.6-4.5,0-7.1,10.9-6.9,10.9.2s-2.3,7.1-4.4,13.7h-5.6l2.5-9.2v-.2Z"/>
      <path class="st0" d="M2116.2,666.6h38.8v8.3h-47.7v-71.4h8.9v63.1Z"/>
      <path class="st0" d="M2183.7,603.5h8.9v71.4h-8.9v-71.4Z"/>
      <path class="st0" d="M2231.3,603.5l24.4,61,24.6-61h9.8l-29.5,71.6h-9.6l-29.6-71.6h9.9Z"/>
      <path class="st0" d="M2319,603.5h50.2v8.2h-41.4v22.3h39.7v8.3h-39.7v24.2h43v8.5h-51.8v-71.4Z"/>
      <path class="st0" d="M2495.7,603.5v8.5h-40.7v24.9h38.9v8.3h-38.9v29.9h-8.9v-71.5h49.6Z"/>
      <path class="st0" d="M2584.7,603.6v42.8c0,19.8-13.4,29.8-29,29.8s-29.3-9.8-29.3-29.8v-42.8h8.8v42.8c0,14.2,9.5,21.6,20.5,21.6s20.2-7.7,20.2-21.7v-42.8h8.8Z"/>
      <path class="st0" d="M2629.1,666.6h38.8v8.3h-47.7v-71.4h8.9v63.1Z"/>
      <path class="st0" d="M2705.4,666.6h38.8v8.3h-47.7v-71.4h8.9v63.1Z"/>
      <path class="st0" d="M2754.9,603.8v-.3h10.8l21.4,33.9,21.9-33.9h10.8v.3l-28.1,42.1v29h-9.2v-29l-27.6-42.1Z"/>
      <path class="st0" d="M2858.7,669.6c0,7.7-11.8,7.7-11.8,0s11.8-7.7,11.8,0ZM2857.1,658.5h-8.9v-55.1h8.9v55.1Z"/>
    </g>
    <g>
      <rect class="st0" x="931.7" y="635.6" width="148.9" height="6"/>
      <rect class="st0" x="2899.5" y="635.6" width="148.9" height="6"/>
    </g>
  </g>
</svg>